<?xml version="1.0" encoding="utf-8"?>
<!-- Generator: Adobe Illustrator 25.0.0, SVG Export Plug-In . SVG Version: 6.00 Build 0)  -->
<svg version="1.1" id="rxc" xmlns="http://www.w3.org/2000/svg" xmlns:xlink="http://www.w3.org/1999/xlink" x="0px" y="0px"
	 viewBox="0 0 1000 1000" style="enable-background:new 0 0 1000 1000;" xml:space="preserve">
<path d="M705.9,500.7c0-233.5,57.9-346.7,157.7-346.7c37.4,0,67.7,15.2,87.3,34.8v177.4h-8.9c-54.4-158.6-66-192.5-94.5-192.5
	c-40.1,0-54.4,103.4-54.4,320.8c0,186.3,32.1,331.5,68.6,331.5c22.3,0,27.6-17.8,80.2-190.7h8.9v175.6
	c-18.7,18.7-51.7,34.8-87.3,34.8C763.8,845.6,705.9,741.3,705.9,500.7z"/>
<path d="M679.2,575.5v18.7H522.3v-18.7c50.8-5.3,53.5-4.5,32.1-52.6L508,419.6L467.9,523c-18.7,49-14.3,47.2,23.2,52.6v18.7H383.3
	v-18.7c32.1-8,29.4-12.5,49.9-52.6l65.1-125.7l-71.3-159.5c-17.8-40.1-21.4-43.7-45.5-52.6v-18.7h156.9v18.7
	c-56.1,5.3-53.5,4.5-32.1,52.6l49,109.6l37.4-109.6c16.9-49,14.3-47.2-23.2-52.6v-18.7h107.8v18.7c-32.1,8-31.2,12.5-49.9,52.6
	l-62.4,131.9L633.7,523C651.5,563.1,655.1,566.6,679.2,575.5z"/>
<path d="M378.9,816.2v18.7H274.6c-2.7-47.2-2.7-37.4-33.9-166.7c-35.7-147.9-40.1-150.6-66-150.6H173v262.9
	c0,26.7,1.8,27.6,42.8,35.7v18.7H48.3v-18.7c41-8,42.8-8.9,42.8-35.7V220.8c0-26.7-1.8-27.6-42.8-35.7v-18.7h156.9
	c96.3,0,141.7,57.9,141.7,156.9c0,115.9-54.4,173.8-125.7,183.6c48.1,4.5,58.8,19.6,98,155.1C362.9,811.7,358.4,806.4,378.9,816.2z
	 M260.4,335.8c0-100.7-20.5-149.7-55.3-149.7c-23.2,0-32.1,9.8-32.1,64.2v244.2h15.2C231.9,494.4,260.4,452.6,260.4,335.8z"/>
</svg>
